HIERARCHY
ROOT Hips
{
	OFFSET 0.000000 0.000000 0.000000
	CHANNELS 6 Xposition Yposition Zposition Zrotation Yrotation Xrotation 
	JOINT LeftUpLeg_virtual
	{
		OFFSET 0.000000 0.000000 0.000000
		CHANNELS 3 Zrotation Yrotation Xrotation
		JOINT LeftUpLeg
		{
			OFFSET 10.205400 -3.823500 0.155100
			CHANNELS 3 Zrotation Yrotation Xrotation
			JOINT LeftLeg
			{
				OFFSET 0.708757 -12.982077 0.567790
				CHANNELS 3 Zrotation Yrotation Xrotation
				JOINT LeftFoot
				{
					OFFSET -0.708756 -10.717838 -2.184338
					CHANNELS 3 Zrotation Yrotation Xrotation
					JOINT LeftToeBase
					{
						OFFSET 0.108149 -7.191104 7.560241
						CHANNELS 3 Zrotation Yrotation Xrotation
						End Site
						{
							OFFSET 0.000000 0.000000 0.000000
						}
					}
				}
			}
		}
	}
	JOINT RightUpLeg_virtual
	{
		OFFSET 0.000000 0.000000 0.000000
		CHANNELS 3 Zrotation Yrotation Xrotation
		JOINT RightUpLeg
		{
			OFFSET -10.205400 -3.823500 0.005500
			CHANNELS 3 Zrotation Yrotation Xrotation
			JOINT RightLeg
			{
				OFFSET -0.708756 -12.982134 0.610632
				CHANNELS 3 Zrotation Yrotation Xrotation
				JOINT RightFoot
				{
					OFFSET 0.708754 -10.717769 -1.945823
					CHANNELS 3 Zrotation Yrotation Xrotation
					JOINT RightToeBase
					{
						OFFSET -0.108140 -7.191069 7.372968
						CHANNELS 3 Zrotation Yrotation Xrotation
						End Site
						{
							OFFSET 0.000000 0.000000 0.000000
						}
					}
				}
			}
		}
	}
	JOINT Spine_virtual
	{
		OFFSET 0.000000 0.000000 0.000000
		CHANNELS 3 Zrotation Yrotation Xrotation
		JOINT Spine
		{
			OFFSET 0.000000 6.876099 0.125700
			CHANNELS 3 Zrotation Yrotation Xrotation
			JOINT Spine1
			{
				OFFSET 0.000000 8.022060 0.146608
				CHANNELS 3 Zrotation Yrotation Xrotation
				JOINT Spine2
				{
					OFFSET 0.000000 9.168068 0.167552
					CHANNELS 3 Zrotation Yrotation Xrotation
					JOINT Neck_virtual
					{
						OFFSET 0.000000 0.000000 0.000000
						CHANNELS 3 Zrotation Yrotation Xrotation
						JOINT Neck
						{
							OFFSET 0.000000 10.314075 0.188496
							CHANNELS 3 Zrotation Yrotation Xrotation
							JOINT Head
							{
								OFFSET 0.000000 7.643700 -2.377400
								CHANNELS 3 Zrotation Yrotation Xrotation
								End Site
								{
									OFFSET 0.000000 0.000000 0.000000
								}
							}
						}
					}
					JOINT LeftShoulder_virtual
					{
						OFFSET 0.000000 0.000000 0.000000
						CHANNELS 3 Zrotation Yrotation Xrotation
						JOINT LeftShoulder
						{
							OFFSET 4.392200 8.824978 0.174984
							CHANNELS 3 Zrotation Yrotation Xrotation
							JOINT LeftArm
							{
								OFFSET 8.771219 -2.981674 -0.026999
								CHANNELS 3 Zrotation Yrotation Xrotation
								JOINT LeftForeArm
								{
									OFFSET 8.512804 0.000000 -0.000000
									CHANNELS 3 Zrotation Yrotation Xrotation
									JOINT LeftHand
									{
										OFFSET 18.484802 0.000000 -0.000000
										CHANNELS 3 Zrotation Yrotation Xrotation
										End Site
										{
											OFFSET 0.000000 0.000000 0.000000
										}
									}
								}
							}
						}
					}
					JOINT RightShoulder_virtual
					{
						OFFSET 0.000000 0.000000 0.000000
						CHANNELS 3 Zrotation Yrotation Xrotation
						JOINT RightShoulder
						{
							OFFSET -4.392200 8.824993 0.141379
							CHANNELS 3 Zrotation Yrotation Xrotation
							JOINT RightArm
							{
								OFFSET -8.771282 -2.981682 -0.094208
								CHANNELS 3 Zrotation Yrotation Xrotation
								JOINT RightForeArm
								{
									OFFSET -8.494598 0.000000 0.000000
									CHANNELS 3 Zrotation Yrotation Xrotation
									JOINT RightHand
									{
										OFFSET -18.483803 0.000000 0.000001
										CHANNELS 3 Zrotation Yrotation Xrotation
										End Site
										{
											OFFSET 0.000000 0.000000 0.000000
										}
									}
								}
							}
						}
					}
				}
			}
		}
	}
}
MOTION
Frames: 5
Frame Time: 0.033333
-4.237822 26.209593 -22.489840 179.891077 -4.238825 179.893440 2.200373 -4.018978 -2.061494 -6.330023 8.377069 -72.153278 14.430626 1.797421 73.341547 -8.582073 -2.844705 2.760670 0.000000 0.000000 0.000000 3.677451 -0.198897 0.144629 2.223061 -9.381649 -74.843874 -0.737050 1.857273 67.945827 0.329296 2.919579 9.934215 0.000000 0.000000 0.000000 1.497774 0.273003 -6.329669 -2.839546 -2.300601 2.332084 0.900622 -0.450250 8.605453 -0.001001 -0.021798 -0.003901 0.513764 0.686733 11.336476 3.478628 -1.089530 15.732065 0.000000 0.000000 0.000000 1.837476 1.336207 8.303265 -14.166909 -10.283945 2.551865 -44.482850 9.953272 30.001640 3.376329 -70.168036 0.051003 0.000000 0.000000 0.000000 -1.214703 2.273922 7.490055 16.983202 5.195233 -6.498319 36.156371 35.894635 -12.170718 -177.499773 61.673678 -175.394381 0.000000 0.000000 0.000000 
-4.280955 26.218510 -22.566439 -179.934367 -4.418188 179.937058 2.410748 -3.888990 -1.766355 -7.056510 8.679041 -72.548623 14.717953 1.906137 73.480227 -8.220074 -2.110540 1.852869 0.000000 0.000000 0.000000 3.766071 -0.188999 0.563273 1.292793 -10.272919 -75.546605 -0.001499 2.567067 69.938296 0.555560 3.178608 7.730605 0.000000 0.000000 0.000000 1.665699 0.317900 -6.271658 -2.785394 -2.254006 2.178418 1.022648 -0.441308 8.633740 -0.060770 0.025132 -0.010939 0.620390 0.775168 11.456644 3.770965 -0.986768 15.835502 0.000000 0.000000 0.000000 1.899197 1.231742 8.415357 -14.183576 -10.213000 2.538168 -46.066703 9.160421 29.073646 3.684902 -69.247477 -0.480942 0.000000 0.000000 0.000000 -1.136209 2.197922 7.552914 16.860662 5.053244 -6.142231 36.183378 36.983603 -10.586631 -177.646308 61.946517 -175.250633 0.000000 0.000000 0.000000 
-4.300552 26.231012 -22.642218 -179.916540 -4.614884 -179.979569 2.399628 -3.891064 -1.420205 -7.545318 8.852851 -72.922166 14.705988 1.843544 73.653475 -7.994818 -1.754081 0.820245 0.000000 0.000000 0.000000 3.733041 -0.248453 0.950089 0.932862 -11.214159 -76.320384 0.740051 2.832492 71.812240 0.384163 3.088964 5.869369 0.000000 0.000000 0.000000 1.704681 0.359518 -6.244398 -2.768721 -2.154753 2.020804 1.075374 -0.604466 8.672392 0.042484 0.058159 0.014617 0.592316 0.713356 11.540202 4.058149 -1.226154 15.942124 0.000000 0.000000 0.000000 1.867930 1.194442 8.414138 -14.128975 -10.089189 2.402643 -47.214396 8.515438 28.388568 3.773722 -68.588944 -0.770845 0.000000 0.000000 0.000000 -1.175889 2.172064 7.577869 16.633616 5.045722 -5.882520 36.083445 38.052968 -9.321874 -177.644437 62.065724 -175.054279 0.000000 0.000000 0.000000 
-4.293830 26.239231 -22.695606 -179.917483 -4.803743 -179.964884 2.340568 -3.863662 -1.118311 -7.806312 8.903404 -73.288005 14.724054 1.704327 73.875408 -7.701422 -1.509899 -0.030078 0.000000 0.000000 0.000000 3.698865 -0.339002 1.325159 1.044495 -12.018904 -77.043400 1.011426 2.606374 72.942295 -0.011265 2.788063 5.018597 0.000000 0.000000 0.000000 1.679879 0.273671 -6.136133 -2.783976 -2.202192 1.868660 1.143639 -0.521186 8.702129 0.018074 -0.027909 0.029016 0.605647 0.722929 11.632330 4.262672 -1.283253 15.993192 0.000000 0.000000 0.000000 1.907700 1.261128 8.446944 -13.913240 -9.882520 2.478796 -47.869937 7.809457 28.107847 3.831121 -68.069665 -0.946419 0.000000 0.000000 0.000000 -1.139657 2.231287 7.688186 16.372766 5.164699 -5.661883 35.846049 39.000035 -8.581170 -177.748488 62.030897 -175.049101 0.000000 0.000000 0.000000 
-4.253739 26.243332 -22.707453 -179.910475 -4.923688 179.867035 2.302799 -3.721937 -0.806033 -8.048138 8.877327 -73.526918 14.918557 1.530831 73.868872 -7.424896 -1.433909 -0.154800 0.000000 0.000000 0.000000 3.660924 -0.393638 1.707948 1.401622 -12.681257 -77.440316 1.041574 2.129246 73.290553 -0.429244 2.391536 5.006190 0.000000 0.000000 0.000000 1.630022 0.343138 -5.824208 -2.813081 -2.117196 1.775550 1.228586 -0.509020 8.728696 -0.068140 -0.035714 -0.009748 0.742159 0.651624 11.727031 4.478115 -1.263139 15.999361 0.000000 0.000000 0.000000 2.054557 1.256837 8.514499 -13.625984 -9.814398 2.434409 -47.962066 7.513179 28.505354 3.790673 -67.802666 -0.973072 0.000000 0.000000 0.000000 -0.988183 2.257622 7.716389 16.143618 5.227466 -5.360670 35.430862 39.774022 -8.365906 -177.666061 61.746249 -174.951402 0.000000 0.000000 0.000000 
